<?xml version="1.0" encoding="UTF-8"?>
<svg version="1.1" xmlns="http://www.w3.org/2000/svg" width="180" height="180">
<path d="M0 0 C2.1507987 -0.00961036 4.30060107 -0.04061049 6.45117188 -0.07226562 C30.77686571 -0.26031054 51.59086249 10.45959444 68.87304688 27.11523438 C80.76281677 39.33940405 87.66011414 53.83551387 91.68554688 70.24023438 C91.86134277 70.81757324 92.03713867 71.39491211 92.21826172 71.98974609 C93.27105102 77.06007616 92.91185647 82.38859478 92.92578125 87.5546875 C92.93539161 89.7054862 92.96639174 91.85528857 92.99804688 94.00585938 C93.18609179 118.33155321 82.46618681 139.14554999 65.81054688 156.42773438 C53.5863772 168.31750427 39.09026738 175.21480164 22.68554688 179.24023438 C22.10820801 179.41603027 21.53086914 179.59182617 20.93603516 179.77294922 C15.86570509 180.82573852 10.53718647 180.46654397 5.37109375 180.48046875 C3.22029505 180.49007911 1.07049268 180.52107924 -1.08007812 180.55273438 C-25.40577196 180.74077929 -46.21976874 170.02087431 -63.50195312 153.36523438 C-75.39172302 141.1410647 -82.28902039 126.64495488 -86.31445312 110.24023438 C-86.49024902 109.66289551 -86.66604492 109.08555664 -86.84716797 108.49072266 C-87.89995727 103.42039259 -87.54076272 98.09187397 -87.5546875 92.92578125 C-87.56429786 90.77498255 -87.59529799 88.62518018 -87.62695312 86.47460938 C-87.81499804 62.14891554 -77.09509306 41.33491876 -60.43945312 24.05273438 C-48.21528345 12.16296448 -33.71917363 5.26566711 -17.31445312 1.24023438 C-16.73711426 1.06443848 -16.15977539 0.88864258 -15.56494141 0.70751953 C-10.49461134 -0.34526977 -5.16609272 0.01392478 0 0 Z " fill="#00FCBE" transform="translate(87.314453125,-0.240234375)"/>
<path d="M0 0 C9.70618031 6.19943129 15.15317047 13.0684507 18.265625 24.140625 C20.83745 37.65638619 19.92373662 50.48421032 12.53125 62.359375 C7.43926687 68.99892163 -0.20707665 72.40235888 -8 75 C-12.99455908 75.52438572 -16.87956656 75.55003096 -21.4375 73.3125 C-23.96604396 71.03064325 -25.48352367 69.03295267 -27 66 C-27.43570313 66.39832031 -27.87140625 66.79664062 -28.3203125 67.20703125 C-34.09365235 72.34305437 -38.85942416 75.65553907 -46.82421875 75.34765625 C-51.55164402 74.59228668 -54.20145778 71.97697107 -57.1328125 68.390625 C-59.45905388 64.16640426 -59.65479143 61.11396431 -59.5625 56.375 C-59.55154297 55.58029297 -59.54058594 54.78558594 -59.52929688 53.96679688 C-59.10758744 42.39321565 -54.13557915 33.15005527 -46 25 C-40.20244824 20.45271899 -35.97706748 17.85382981 -28.5625 17.8125 C-27.40878906 17.79832031 -26.25507812 17.78414062 -25.06640625 17.76953125 C-22 18 -22 18 -19 20 C-16.93089407 20.02749478 -16.93089407 20.02749478 -14.8125 19.625 C-13.554375 19.41875 -12.29625 19.2125 -11 19 C-10.68854697 26.44372733 -11.88027674 33.00291729 -13.5 40.25 C-17.10048702 54.22398478 -17.10048702 54.22398478 -15 68 C-8.38411712 68.55132357 -3.52029954 67.83911741 2 64 C9.68719991 56.31280009 10.18887776 46.41783426 10.25 36.1875 C10.270625 35.33607422 10.29125 34.48464844 10.3125 33.60742188 C10.36505467 24.9818869 8.31648402 17.62052463 2.85546875 10.8515625 C-5.6866566 2.32742057 -16.59413285 -0.28217618 -28.25 -0.5 C-42.92283845 -0.42834828 -54.24523594 4.90437841 -65.0234375 14.87109375 C-74.7589806 25.09553967 -78.36906264 37.6758433 -78.25 51.4375 C-78.25773437 52.32759766 -78.26546875 53.21769531 -78.2734375 54.13476562 C-78.23886503 65.96719244 -75.48949914 76.58368853 -67.1875 85.375 C-58.42480109 93.53054561 -47.30564866 96.52962815 -35.5625 96.375 C-34.24668945 96.39240234 -34.24668945 96.39240234 -32.90429688 96.41015625 C-27.24283345 96.38512399 -22.46238454 95.48819594 -17.10913086 93.64306641 C-15 93 -15 93 -12 93 C-11.67 94.32 -11.34 95.64 -11 97 C-25.7235845 103.33272452 -41.99052232 104.80658314 -57.265625 99.20703125 C-70.09307692 93.54462747 -77.52667527 86.21316107 -83.921875 73.78515625 C-88.86806062 61.00751007 -89.00941184 44.77575872 -84.32421875 31.953125 C-77.34342451 16.38533607 -67.41148995 4.52001554 -51.3125 -1.8125 C-49.22048716 -2.57583719 -47.11575003 -3.30515958 -45 -4 C-43.93007812 -4.36480469 -42.86015625 -4.72960938 -41.7578125 -5.10546875 C-27.61676999 -8.47168365 -12.7647421 -6.83981062 0 0 Z " fill="#000D09" transform="translate(124,42)"/>
<path d="M0 0 C0.99 0.66 1.98 1.32 3 2 C3.73618369 9.44263756 2.11762141 16.86436833 0.875 24.1875 C0.68679687 25.44498047 0.49859375 26.70246094 0.3046875 27.99804688 C-1.43919426 38.23790261 -1.43919426 38.23790261 -4.9921875 41.23828125 C-6.48105469 42.11033203 -6.48105469 42.11033203 -8 43 C-8.99 43.66 -9.98 44.32 -11 45 C-14.38992044 45.53763346 -17.61147944 45.55549517 -21 45 C-24.48620377 41.85391367 -25.83262486 38.93167371 -26.23828125 34.25 C-26.49899736 22.83337877 -23.94735336 13.44406294 -16 5 C-11.2272151 0.29605334 -6.68493327 -1.23075322 0 0 Z " fill="#00F8BA" transform="translate(100,65)"/>
</svg>
